<?xml version="1.0" encoding="UTF-8"?>
<svg xmlns="http://www.w3.org/2000/svg" width="256" height="68" viewBox="0 0 256 68">
  <g transform="translate(-833 -77.809)">
    <g transform="translate(833 77.435)">
      <text transform="translate(0 43.374)" fill="#ea2630" font-size="30" font-family="PlaywriteMX-Regular, Playwrite MX">
        <tspan x="0" y="0">Canela en rama</tspan>
      </text>
      <path d="M129.36,1.04a6.213,6.213,0,0,1-2.3-.41,5.291,5.291,0,0,1-1.8-1.176q-.116-.116-.227-.239A21.192,21.192,0,0,1,121.894.405a14.271,14.271,0,0,1-3.934.6A1.121,1.121,0,0,1,116.917.4a1.7,1.7,0,0,1-.154-1.1,1.93,1.93,0,0,1,.559-1.049,1.8,1.8,0,0,1,1.329-.491,9.426,9.426,0,0,0,2.991-.529,16.132,16.132,0,0,0,1.83-.746c-.093-.279-.172-.567-.239-.86a10.411,10.411,0,0,1-.252-2.285,11.92,11.92,0,0,1,.469-3.272,10.735,10.735,0,0,1,1.4-3.036,7.377,7.377,0,0,1,2.349-2.251,6.34,6.34,0,0,1,3.3-.851,4.513,4.513,0,0,1,2.241.529,3.587,3.587,0,0,1,1.442,1.462,4.338,4.338,0,0,1,.478,2.049A7.391,7.391,0,0,1,134-9.006a12.173,12.173,0,0,1-1.736,2.769A16.8,16.8,0,0,1,129.8-3.814c-.472.4-.968.775-1.481,1.133l.08.052a2.52,2.52,0,0,0,1.383.358,4.1,4.1,0,0,0,2.007-.537,8.373,8.373,0,0,0,2.007-1.629,23.873,23.873,0,0,0,2.1-2.644c.721-1.037,1.487-2.224,2.278-3.529l0-.007a26.689,26.689,0,0,1,1.9-2.691,10.037,10.037,0,0,1,1.646-1.642,5.125,5.125,0,0,1,1.484-.812,4.615,4.615,0,0,1,1.4-.218,1.408,1.408,0,0,1,.175.011,1.6,1.6,0,0,1,.185-.011,4.147,4.147,0,0,1,1.6.279,2.6,2.6,0,0,1,1.109.855,3.126,3.126,0,0,1,.537,1.248q.044.221.07.451.294-.3.593-.562a11.888,11.888,0,0,1,1.707-1.268,7.648,7.648,0,0,1,1.846-.818,6.948,6.948,0,0,1,1.923-.275,4.2,4.2,0,0,1,2.884.908,3.668,3.668,0,0,1,1.154,2.52,8.7,8.7,0,0,1-.533,3.469L155.967-3.3a5.011,5.011,0,0,0-.163.706.643.643,0,0,0,.01.307.569.569,0,0,0,.155.016,1.021,1.021,0,0,0,.528-.142,2.149,2.149,0,0,0,.535-.451c.19-.218.362-.434.513-.641l.01-.013a1.5,1.5,0,0,1,.761-.532,1.009,1.009,0,0,1,.29-.042,1.588,1.588,0,0,1,.869.307,1.363,1.363,0,0,1,.772.992,1.607,1.607,0,0,1-.209.932l-.008.014A7.261,7.261,0,0,1,159.1-.635,5.677,5.677,0,0,1,157.617.5a4.184,4.184,0,0,1-2.007.48,3.679,3.679,0,0,1-2.2-.559,2.619,2.619,0,0,1-1.033-1.529,4.812,4.812,0,0,1-.054-1.925,14.023,14.023,0,0,1,.467-1.976l0-.007,1.8-5.46a3.2,3.2,0,0,0,.2-1.331.871.871,0,0,0-.341-.646,1.847,1.847,0,0,0-1.067-.247,3.9,3.9,0,0,0-1.648.4,7.554,7.554,0,0,0-1.785,1.211,12.574,12.574,0,0,0-1.73,1.919,17.8,17.8,0,0,0-1.513,2.459L144.627-.18a1.5,1.5,0,0,1-.649.86,2.409,2.409,0,0,1-1.268.27,2.4,2.4,0,0,1-1.115-.266,1.068,1.068,0,0,1-.472-1.374L144.786-12.1a1.1,1.1,0,0,0,.09-.6.574.574,0,0,0-.216-.03,1.408,1.408,0,0,1-.186-.012,1.707,1.707,0,0,1-.2.012,1.036,1.036,0,0,0-.557.247,5.433,5.433,0,0,0-.928.947c-.359.447-.755.99-1.175,1.615s-.889,1.352-1.383,2.141a36.381,36.381,0,0,1-2.721,4,18.922,18.922,0,0,1-2.621,2.743A9.1,9.1,0,0,1,132.216.545,8.309,8.309,0,0,1,129.36,1.04Zm-3.395-2.292a4.3,4.3,0,0,0,1.464.952,5.221,5.221,0,0,0,1.931.34,7.312,7.312,0,0,0,2.514-.435,8.1,8.1,0,0,0,2.372-1.415,17.934,17.934,0,0,0,2.479-2.6,35.4,35.4,0,0,0,2.647-3.89l.005-.009c.5-.8.973-1.532,1.4-2.174s.848-1.216,1.225-1.685a6.307,6.307,0,0,1,1.112-1.123,2.713,2.713,0,0,1,.411-.255,1.989,1.989,0,0,1-.117-.848,1.864,1.864,0,0,1,.075-.413,4.2,4.2,0,0,0-1.166.652,9.066,9.066,0,0,0-1.474,1.478,25.7,25.7,0,0,0-1.821,2.585c-.8,1.321-1.578,2.525-2.31,3.577a24.863,24.863,0,0,1-2.19,2.756,9.362,9.362,0,0,1-2.253,1.821,5.086,5.086,0,0,1-2.493.663,3.534,3.534,0,0,1-1.917-.512,4.051,4.051,0,0,1-.429-.311l-.019.012,0,0c-.449.281-.915.549-1.389.8Zm-2.139-1.325a17.1,17.1,0,0,1-1.867.756,10.42,10.42,0,0,1-3.309.581.841.841,0,0,0-.621.2.938.938,0,0,0-.281.511.711.711,0,0,0,.056.464c.023.044.04.076.157.076a13.278,13.278,0,0,0,3.656-.565A20.071,20.071,0,0,0,124.4-1.6a7.512,7.512,0,0,1-.4-.678q-.079-.15-.152-.3l-.016.008Zm29.92-2.13a13.015,13.015,0,0,0-.432,1.83,3.825,3.825,0,0,0,.036,1.525A1.623,1.623,0,0,0,154-.391a2.8,2.8,0,0,0,1.613.371,3.2,3.2,0,0,0,1.533-.36,4.68,4.68,0,0,0,1.22-.935,6.313,6.313,0,0,0,.8-1.031.627.627,0,0,0,.088-.341.8.8,0,0,0-.3-.242l-.024-.015a.683.683,0,0,0-.326-.147H158.6a.5.5,0,0,0-.252.182c-.166.228-.355.464-.562.7a3.146,3.146,0,0,1-.785.659,2.022,2.022,0,0,1-1.032.278,1.055,1.055,0,0,1-1.027-.521,1.514,1.514,0,0,1-.127-.955,6.009,6.009,0,0,1,.2-.851l0-.006,1.892-5.887a7.733,7.733,0,0,0,.485-3.067,2.67,2.67,0,0,0-.826-1.86,3.253,3.253,0,0,0-2.216-.652,5.947,5.947,0,0,0-1.647.235,6.645,6.645,0,0,0-1.6.712,10.883,10.883,0,0,0-1.563,1.162,13.086,13.086,0,0,0-1.488,1.575l-.871-.448.135-.484a4.7,4.7,0,0,0-.083-1.084,2.135,2.135,0,0,0-.363-.852,1.59,1.59,0,0,0-.691-.525,2.252,2.252,0,0,0-.394-.122,2.089,2.089,0,0,1,.02.6,2.064,2.064,0,0,1-.275.843.959.959,0,0,1,.27.371,1.88,1.88,0,0,1-.063,1.305l-3.659,11.4a.512.512,0,0,0-.031.178l.01.006a1.389,1.389,0,0,0,.655.154,1.494,1.494,0,0,0,.742-.12.514.514,0,0,0,.22-.307l0-.005,2.112-6.609.019-.036a18.84,18.84,0,0,1,1.618-2.635,13.577,13.577,0,0,1,1.87-2.071,8.547,8.547,0,0,1,2.025-1.369,4.885,4.885,0,0,1,2.072-.5,2.718,2.718,0,0,1,1.663.443,1.855,1.855,0,0,1,.739,1.334,4.1,4.1,0,0,1-.247,1.761ZM124.734-3.039q.071.153.149.3a6.459,6.459,0,0,0,.425.7l.248-.13c.4-.213.8-.44,1.183-.676q-.084-.117-.16-.24a5.449,5.449,0,0,1-.411-.815c-.28.183-.568.361-.86.533C125.118-3.252,124.926-3.143,124.734-3.039Zm2.283-1.442a4.558,4.558,0,0,0,.414.873q.07.114.149.221c.548-.375,1.078-.776,1.579-1.2l.009-.007a15.8,15.8,0,0,0,2.326-2.282,11.175,11.175,0,0,0,1.594-2.541,6.4,6.4,0,0,0,.572-2.616,3.351,3.351,0,0,0-.362-1.581,2.568,2.568,0,0,0-1.048-1.058,2.934,2.934,0,0,0-.767-.294,2.489,2.489,0,0,1-.059.7,2.847,2.847,0,0,1-.339.867,1.532,1.532,0,0,1,.4.342,2.44,2.44,0,0,1,.475,1.594,4.9,4.9,0,0,1-.53,2.138,9.6,9.6,0,0,1-1.36,2.042A16.977,16.977,0,0,1,128.307-5.5C127.9-5.149,127.466-4.807,127.017-4.481Zm1.731-10.339a4.749,4.749,0,0,0-1.036.459,6.384,6.384,0,0,0-2.031,1.949,9.737,9.737,0,0,0-1.27,2.754,10.921,10.921,0,0,0-.431,3,9.407,9.407,0,0,0,.228,2.065c.047.209.1.414.164.614q.216-.119.43-.245c.362-.213.717-.437,1.059-.667a8.568,8.568,0,0,1-.21-1.888,9.635,9.635,0,0,1,.189-1.852,10.277,10.277,0,0,1,.536-1.829,7.347,7.347,0,0,1,.87-1.593,4.516,4.516,0,0,1,1.2-1.162,3.021,3.021,0,0,1,.368-.2,1.983,1.983,0,0,1-.146-1A1.963,1.963,0,0,1,128.747-14.82Zm1.2,2.15a1.763,1.763,0,0,0-.961.3,3.524,3.524,0,0,0-.93.908,6.346,6.346,0,0,0-.75,1.377,9.276,9.276,0,0,0-.484,1.651,8.638,8.638,0,0,0-.171,1.659,7.585,7.585,0,0,0,.1,1.249c.311-.236.612-.479.9-.728A15.973,15.973,0,0,0,129.31-7.93a8.6,8.6,0,0,0,1.22-1.828,3.917,3.917,0,0,0,.43-1.7,1.5,1.5,0,0,0-.245-.956A.974.974,0,0,0,129.946-12.67Zm.509-2.4a.687.687,0,0,0-.547.2.912.912,0,0,0-.246.549.95.95,0,0,0,.092.555.159.159,0,0,0,.175.1h.03c.03,0,.1,0,.207-.149a1.792,1.792,0,0,0,.28-.658A1.223,1.223,0,0,0,130.455-15.069Zm14.276.145a.47.47,0,0,0-.121.108.848.848,0,0,0-.2.5.943.943,0,0,0,.094.514l.011.019a.332.332,0,0,0,.089-.085,1.057,1.057,0,0,0,.2-.534.937.937,0,0,0-.074-.513ZM76.53,1.04A6.3,6.3,0,0,1,73.909.485,6.4,6.4,0,0,1,71.8-1.062a17.992,17.992,0,0,1-1.954.941,15.612,15.612,0,0,1-2.821.867,12.849,12.849,0,0,1-2.467.264h-.03A4.322,4.322,0,0,1,62.462.56,2.951,2.951,0,0,1,61.186-.755,4.016,4.016,0,0,1,60.805-2.6a7.486,7.486,0,0,1,.368-2.107l0-.006,1.89-5.76a3.2,3.2,0,0,0,.2-1.331.871.871,0,0,0-.341-.646A1.848,1.848,0,0,0,61.86-12.7a3.9,3.9,0,0,0-1.648.4,7.554,7.554,0,0,0-1.785,1.211A12.576,12.576,0,0,0,56.7-9.168a17.806,17.806,0,0,0-1.513,2.459L53.1-.18a1.5,1.5,0,0,1-.649.86A2.409,2.409,0,0,1,51.18.95,2.4,2.4,0,0,1,50.065.684a1.068,1.068,0,0,1-.472-1.374L53.256-12.1a1.1,1.1,0,0,0,.09-.6.574.574,0,0,0-.216-.03H53.1a1.332,1.332,0,0,0-.707.237,4.364,4.364,0,0,0-.948.9,12.907,12.907,0,0,0-1.181,1.775c-.432.756-.921,1.7-1.454,2.8A34.721,34.721,0,0,1,46.6-2.965,12.074,12.074,0,0,1,44.564-.508,5.713,5.713,0,0,1,42.489.7a7.405,7.405,0,0,1-2.139.306h-.06a4.393,4.393,0,0,1-2.1-.45A2.951,2.951,0,0,1,36.916-.755a3.66,3.66,0,0,1-.3-.926,9.383,9.383,0,0,1-2.632,2,6.341,6.341,0,0,1-2.659.693A4.592,4.592,0,0,1,28.834.348a4.244,4.244,0,0,1-1.615-1.915A6.7,6.7,0,0,1,26.684-4.1a20.279,20.279,0,0,1-3.543,2.626A18.932,18.932,0,0,1,18.827.376a16.494,16.494,0,0,1-4.517.634A11.488,11.488,0,0,1,10.061.255,9,9,0,0,1,6.775-1.969,9.721,9.721,0,0,1,4.7-5.509,14.573,14.573,0,0,1,4-10.2a21.574,21.574,0,0,1,.506-4.53A25,25,0,0,1,6.021-19.4a24.3,24.3,0,0,1,2.481-4.4,18.73,18.73,0,0,1,3.452-3.683,15.963,15.963,0,0,1,4.444-2.54,15.106,15.106,0,0,1,5.352-.932,14.106,14.106,0,0,1,3.562.421,9.854,9.854,0,0,1,2.907,1.265,7.45,7.45,0,0,1,2.137,2.106,1.109,1.109,0,0,1,.161,1.11,2.259,2.259,0,0,1-.755.826,1.658,1.658,0,0,1-1.007.4,1.619,1.619,0,0,1-1.075-.524l-.013-.013a6.5,6.5,0,0,0-2.51-1.5A11.855,11.855,0,0,0,21.33-27.4a9.846,9.846,0,0,0-3.727.713,12.345,12.345,0,0,0-3.272,1.975,16.381,16.381,0,0,0-2.722,2.926,18.906,18.906,0,0,0-2.046,3.58,22.109,22.109,0,0,0-1.291,3.931A17.7,17.7,0,0,0,7.82-10.38,11.92,11.92,0,0,0,8.307-6.8a7.112,7.112,0,0,0,1.342,2.51A5.34,5.34,0,0,0,11.736-2.8a7.726,7.726,0,0,0,2.874.5,13.8,13.8,0,0,0,3.735-.521,16.275,16.275,0,0,0,3.609-1.514,18.306,18.306,0,0,0,3.329-2.439,19.84,19.84,0,0,0,2.591-2.905c.117-.261.244-.524.379-.782a12.314,12.314,0,0,1,2-2.8A9.327,9.327,0,0,1,33.12-15.3a8.888,8.888,0,0,1,3.75-.766,7.222,7.222,0,0,1,2.707.531c.283.114.56.239.828.374a1.451,1.451,0,0,1,.474-.528A2.073,2.073,0,0,1,42-15.95a2.018,2.018,0,0,1,1.558.452,1.31,1.31,0,0,1,.146,1.379L40.435-4.134c-.386,1.159-.278,1.534-.236,1.621.088.182.351.274.78.274h.03a2.1,2.1,0,0,0,.855-.224,4.088,4.088,0,0,0,1.09-.8,10.279,10.279,0,0,0,1.3-1.63,18.622,18.622,0,0,0,1.429-2.686,36.7,36.7,0,0,1,2.192-4.26,13.937,13.937,0,0,1,1.934-2.537,5.486,5.486,0,0,1,1.839-1.266A4.956,4.956,0,0,1,53.4-15.98h.03a4.147,4.147,0,0,1,1.6.279,2.6,2.6,0,0,1,1.109.855A3.126,3.126,0,0,1,56.68-13.6q.044.221.07.451.294-.3.593-.562a11.888,11.888,0,0,1,1.707-1.268A7.647,7.647,0,0,1,60.9-15.8a6.948,6.948,0,0,1,1.923-.275,4.2,4.2,0,0,1,2.884.908,3.668,3.668,0,0,1,1.154,2.52,8.7,8.7,0,0,1-.533,3.469L64.7-4.132c-.387,1.162-.285,1.54-.245,1.628.1.218.485.264.791.264a9.514,9.514,0,0,0,2.934-.515,13.619,13.619,0,0,0,2.094-.893A8.917,8.917,0,0,1,69.79-6.66a11.92,11.92,0,0,1,.469-3.272,10.98,10.98,0,0,1,1.383-3.033A7.178,7.178,0,0,1,74-15.22a6.42,6.42,0,0,1,3.314-.85,4.513,4.513,0,0,1,2.241.529,3.587,3.587,0,0,1,1.442,1.462,4.338,4.338,0,0,1,.478,2.049,7.185,7.185,0,0,1-.595,2.821,11.58,11.58,0,0,1-1.583,2.634,18.051,18.051,0,0,1-2.247,2.356A15.368,15.368,0,0,1,75.275-2.8a3.536,3.536,0,0,0,.335.173,3.6,3.6,0,0,0,1.489.3,8.131,8.131,0,0,0,3.039-.609,14.853,14.853,0,0,0,3.09-1.727c.574-.411,1.147-.866,1.707-1.354.119-.566.279-1.174.476-1.808l0-.006,5.79-17.82a10.019,10.019,0,0,1,2.226-4.073A4.6,4.6,0,0,1,96.75-31.07a3.442,3.442,0,0,1,2.046.618,3.818,3.818,0,0,1,1.3,1.668,6.2,6.2,0,0,1,.429,2.366v.047q0,.025,0,.05a10.591,10.591,0,0,1-.438,2.588,26.41,26.41,0,0,1-1.238,3.411c-.533,1.228-1.176,2.533-1.91,3.88s-1.569,2.723-2.483,4.089-1.919,2.718-2.984,4.014A40.49,40.49,0,0,1,88.3-4.9,5.7,5.7,0,0,0,88.2-3.877a1.478,1.478,0,0,0,.481,1.231,2.765,2.765,0,0,0,1.674.406h.03a3.608,3.608,0,0,0,1.383-.292,5.779,5.779,0,0,0,1.448-.9,8.094,8.094,0,0,0,1.355-1.455A10.491,10.491,0,0,0,95.3-6.015c.064-.43.152-.879.264-1.334a13.954,13.954,0,0,1,1.182-3.112,12.314,12.314,0,0,1,2-2.8A9.327,9.327,0,0,1,101.61-15.3a8.888,8.888,0,0,1,3.75-.766,7.032,7.032,0,0,1,2.1.323,8.741,8.741,0,0,1,1.408.578,1.455,1.455,0,0,1,.517-.549,2.122,2.122,0,0,1,1.076-.232,1.971,1.971,0,0,1,1.582.463,1.385,1.385,0,0,1,.156,1.351l0,.013L108.626-3.3a5.012,5.012,0,0,0-.162.7.558.558,0,0,0,.019.3.5.5,0,0,0,.177.023.968.968,0,0,0,.5-.142,2.4,2.4,0,0,0,.558-.46,7.441,7.441,0,0,0,.515-.625A1.351,1.351,0,0,1,111-4.051a1.055,1.055,0,0,1,.29-.04,1.6,1.6,0,0,1,.884.311,1.368,1.368,0,0,1,.737.988,1.606,1.606,0,0,1-.207.928,6.3,6.3,0,0,1-.895,1.224A5.443,5.443,0,0,1,110.337.5a4.184,4.184,0,0,1-2.007.48,3.975,3.975,0,0,1-1.714-.318,2.48,2.48,0,0,1-1.063-.9,3.167,3.167,0,0,1-.446-1.21q-.015-.095-.026-.19A10.366,10.366,0,0,1,103.8-.5,7.788,7.788,0,0,1,101.663.669a5.946,5.946,0,0,1-1.853.341A4.592,4.592,0,0,1,97.324.348a4.244,4.244,0,0,1-1.615-1.915q-.056-.126-.107-.258a9.757,9.757,0,0,1-1.024.98A8.423,8.423,0,0,1,92.249.527,7.083,7.083,0,0,1,89.7,1.01h-.03A5.436,5.436,0,0,1,86.126-.035a3.858,3.858,0,0,1-1.258-2.006q-.234.166-.468.325A18.219,18.219,0,0,1,80.529.3,11.5,11.5,0,0,1,76.53,1.04ZM72.9-1.369a5.327,5.327,0,0,0,1.417.944A5.31,5.31,0,0,0,76.53.04a10.5,10.5,0,0,0,3.651-.674,17.22,17.22,0,0,0,3.658-1.91c.282-.191.566-.392.846-.6A8.5,8.5,0,0,1,84.7-4.479l-.089.078.013-.065q-.406.319-.815.613a15.851,15.851,0,0,1-3.3,1.843A9.126,9.126,0,0,1,77.1-1.33a4.59,4.59,0,0,1-1.9-.389,4.512,4.512,0,0,1-.836-.491l-.014.009,0,0C73.873-1.909,73.39-1.63,72.9-1.369ZM96.355-2.752a4.774,4.774,0,0,0,.267.779A3.219,3.219,0,0,0,97.856-.5,3.613,3.613,0,0,0,99.81.01a4.964,4.964,0,0,0,1.537-.289A6.8,6.8,0,0,0,103.2-1.3a11.111,11.111,0,0,0,2.007-2.01l.839.535a.2.2,0,0,0,.023-.089l0,.215a4.085,4.085,0,0,0,.026,1.042,2.175,2.175,0,0,0,.3.83,1.481,1.481,0,0,0,.647.536,3.071,3.071,0,0,0,1.286.222,3.2,3.2,0,0,0,1.533-.36,4.447,4.447,0,0,0,1.2-.93,5.317,5.317,0,0,0,.754-1.024l0-.006a.628.628,0,0,0,.092-.353c-.006-.014-.054-.1-.278-.244l-.012-.008a.682.682,0,0,0-.335-.147l-.015,0a.363.363,0,0,0-.216.157l-.012.017a8.423,8.423,0,0,1-.59.718,3.4,3.4,0,0,1-.792.65,1.968,1.968,0,0,1-1,.278,1.1,1.1,0,0,1-1.031-.5,1.445,1.445,0,0,1-.153-.975,6.009,6.009,0,0,1,.2-.851l0-.01,3.568-10.824a.666.666,0,0,0,.038-.407,1.741,1.741,0,0,0-.821-.113,1.185,1.185,0,0,0-.574.1c-.022.013-.134.091-.268.425l-.187.746-.58-.352a7.658,7.658,0,0,0-1.69-.76,6.033,6.033,0,0,0-1.8-.277,7.9,7.9,0,0,0-3.33.674,8.332,8.332,0,0,0-2.562,1.826A11.315,11.315,0,0,0,97.629-10a13.106,13.106,0,0,0-.986,2.464h.052a1.453,1.453,0,0,1,.994.446,1.144,1.144,0,0,1,.342.714q.04-.228.091-.465a11.353,11.353,0,0,1,.8-2.37,9.5,9.5,0,0,1,1.425-2.217A6.675,6.675,0,0,1,102.5-13.08a6.543,6.543,0,0,1,2.889-.621,8.166,8.166,0,0,1,1.6.16,5.945,5.945,0,0,1,1.7.653l.361.2-1.733,5.3-.024.042a21.971,21.971,0,0,1-2.089,3.132,9.751,9.751,0,0,1-2.217,2.07,4.322,4.322,0,0,1-2.34.754A2.792,2.792,0,0,1,99.139-1.8a2.474,2.474,0,0,1-.976-1.177A4.563,4.563,0,0,1,97.87-4.71a8.735,8.735,0,0,1,.07-1.065A12.077,12.077,0,0,1,96.531-3C96.473-2.917,96.415-2.834,96.355-2.752ZM27.709-5.109c-.019.248-.029.493-.029.729a5.9,5.9,0,0,0,.452,2.406A3.219,3.219,0,0,0,29.366-.5,3.612,3.612,0,0,0,31.32.01a5.372,5.372,0,0,0,2.231-.6A9.021,9.021,0,0,0,36.23-2.736c.112-.124.225-.255.337-.39a7.588,7.588,0,0,1,.2-1.123A10.407,10.407,0,0,1,34.63-2.226a4.369,4.369,0,0,1-2.44.836,2.771,2.771,0,0,1-1.532-.41,2.593,2.593,0,0,1-.966-1.164A4.36,4.36,0,0,1,29.38-4.71a9.793,9.793,0,0,1,.267-2.136q.118-.522.294-1.051A22.125,22.125,0,0,1,27.709-5.109ZM14.61-1.3a.371.371,0,0,0-.326.153,1.124,1.124,0,0,0-.228.566.853.853,0,0,0,.067.515c.019.036.04.076.187.076a.371.371,0,0,0,.326-.153,1.124,1.124,0,0,0,.228-.566.853.853,0,0,0-.067-.515C14.778-1.259,14.757-1.3,14.61-1.3Zm50.64.06a.906.906,0,0,0-.629.22,1.22,1.22,0,0,0-.379.554.491.491,0,0,0,.011.4c.023.045.138.075.293.076A.88.88,0,0,0,65.174-.2a.825.825,0,0,0,.271-.487.851.851,0,0,0-.061-.5C65.365-1.218,65.355-1.24,65.25-1.24Zm25.121,0a.878.878,0,0,0-.625.206.9.9,0,0,0-.288.5.646.646,0,0,0,.063.449c.031.055.058.089.169.091a.827.827,0,0,0,.6-.2,1.031,1.031,0,0,0,.3-.528.593.593,0,0,0-.051-.433C90.509-1.2,90.482-1.238,90.371-1.24ZM41-1.24c-.038,0-.123.014-.246.163a1.57,1.57,0,0,0-.309.595,1.061,1.061,0,0,0-.036.488.761.761,0,0,0,.505-.195.854.854,0,0,0,.263-.495.851.851,0,0,0-.061-.5C41.1-1.217,41.086-1.237,41-1.24ZM21.75-29.95a14.11,14.11,0,0,0-5,.868,14.964,14.964,0,0,0-4.166,2.38,17.73,17.73,0,0,0-3.268,3.487A23.3,23.3,0,0,0,6.939-19,24,24,0,0,0,5.484-14.52,20.576,20.576,0,0,0,5-10.2a13.583,13.583,0,0,0,.648,4.369,8.73,8.73,0,0,0,1.857,3.18A8,8,0,0,0,10.429-.675,9.818,9.818,0,0,0,13.08-.05a2.034,2.034,0,0,1-.016-.659,2.2,2.2,0,0,1,.2-.679,7.966,7.966,0,0,1-1.9-.488A6.33,6.33,0,0,1,8.891-3.634a8.1,8.1,0,0,1-1.538-2.86A12.909,12.909,0,0,1,6.82-10.38,18.7,18.7,0,0,1,7.3-14.5,23.109,23.109,0,0,1,8.647-18.6a19.906,19.906,0,0,1,2.154-3.77,17.383,17.383,0,0,1,2.888-3.1,13.342,13.342,0,0,1,3.538-2.135,10.841,10.841,0,0,1,4.1-.787,12.836,12.836,0,0,1,4.153.6,7.49,7.49,0,0,1,2.883,1.732c.269.248.387.251.389.251a.735.735,0,0,0,.4-.2l0,0a1.523,1.523,0,0,0,.439-.425.434.434,0,0,0-.075-.157,6.455,6.455,0,0,0-1.853-1.824,8.857,8.857,0,0,0-2.613-1.135A13.111,13.111,0,0,0,21.75-29.95ZM50.515-.21l.01.006a1.389,1.389,0,0,0,.655.154,1.494,1.494,0,0,0,.742-.12.513.513,0,0,0,.22-.307l0-.005,2.112-6.609.019-.036a18.839,18.839,0,0,1,1.618-2.635,13.578,13.578,0,0,1,1.87-2.071A8.548,8.548,0,0,1,59.788-13.2a4.885,4.885,0,0,1,2.072-.5,2.718,2.718,0,0,1,1.663.443,1.855,1.855,0,0,1,.739,1.334,4.1,4.1,0,0,1-.247,1.761L62.126-4.406a6.49,6.49,0,0,0-.321,1.82,3.03,3.03,0,0,0,.279,1.392,1.944,1.944,0,0,0,.854.875,2.21,2.21,0,0,0,.269.123,1.675,1.675,0,0,1,.08-.566,2.175,2.175,0,0,1,.567-.909,1.271,1.271,0,0,1-.3-.414,3.4,3.4,0,0,1,.2-2.36L65.376-9.49a7.733,7.733,0,0,0,.485-3.067,2.67,2.67,0,0,0-.826-1.86,3.253,3.253,0,0,0-2.216-.652,5.948,5.948,0,0,0-1.647.235,6.646,6.646,0,0,0-1.6.712,10.883,10.883,0,0,0-1.563,1.162,13.088,13.088,0,0,0-1.487,1.575l-.871-.448.135-.484A4.7,4.7,0,0,0,55.7-13.4a2.135,2.135,0,0,0-.363-.852,1.59,1.59,0,0,0-.691-.525,2.128,2.128,0,0,0-.279-.094,2.79,2.79,0,0,1-.022.587,2.7,2.7,0,0,1-.279.891.961.961,0,0,1,.2.307,1.88,1.88,0,0,1-.063,1.305L50.546-.387A.512.512,0,0,0,50.515-.21ZM15.814-1.35a1.978,1.978,0,0,1,.042.769,2.247,2.247,0,0,1-.132.525,15.589,15.589,0,0,0,2.829-.53,17.931,17.931,0,0,0,4.086-1.751,19.433,19.433,0,0,0,3.729-2.837c.127-.123.254-.249.378-.376A13.673,13.673,0,0,1,27-7.069q-.508.539-1.046,1.032a19.3,19.3,0,0,1-3.511,2.571,17.273,17.273,0,0,1-3.831,1.606A14.944,14.944,0,0,1,15.814-1.35ZM37.54-2.743c0,.053,0,.1-.005.156a3.03,3.03,0,0,0,.279,1.392,1.944,1.944,0,0,0,.854.875,2.57,2.57,0,0,0,.725.25,2.211,2.211,0,0,1,.085-.678,2.589,2.589,0,0,1,.348-.761,1.334,1.334,0,0,1-.526-.568,3.3,3.3,0,0,1,.185-2.372l3.272-10c.088-.253.068-.364.056-.384A1.593,1.593,0,0,0,42-14.95a1.147,1.147,0,0,0-.588.1.505.505,0,0,0-.138.176c.22.14.434.288.638.443l.247.187-.586,3.108-.626-.408c-.231-.15-.455-.288-.672-.411l-1.1,3.336.769,1.537-.1.218A20.3,20.3,0,0,1,37.54-2.743Zm48.206.053A3,3,0,0,0,86.764-.805a3.6,3.6,0,0,0,1.706.72,1.76,1.76,0,0,1,0-.614,1.813,1.813,0,0,1,.328-.767,2.575,2.575,0,0,1-.726-.387,2.432,2.432,0,0,1-.869-2l-.153.146.011-.059Q86.411-3.2,85.746-2.69ZM66.395-1.317a1.932,1.932,0,0,1,.041.77,1.71,1.71,0,0,1-.106.4q.248-.04.5-.091a14.618,14.618,0,0,0,2.639-.813,16.846,16.846,0,0,0,1.706-.812,7.721,7.721,0,0,1-.5-.857l-.016.009,0-.009A14.567,14.567,0,0,1,68.5-1.8,11.6,11.6,0,0,1,66.395-1.317Zm-24.318-.15a1.882,1.882,0,0,1,.088.92,1.771,1.771,0,0,1-.076.325L42.2-.254a4.731,4.731,0,0,0,1.706-1.008,11.1,11.1,0,0,0,1.861-2.253,33.771,33.771,0,0,0,2.141-3.93c.544-1.128,1.044-2.092,1.487-2.868a13.874,13.874,0,0,1,1.279-1.915,5.249,5.249,0,0,1,1.182-1.108q.091-.058.182-.107a1.962,1.962,0,0,1-.157-.946,1.888,1.888,0,0,1,.043-.292,4.677,4.677,0,0,0-1.414,1.013,12.975,12.975,0,0,0-1.786,2.353A35.73,35.73,0,0,0,46.6-7.175a19.6,19.6,0,0,1-1.51,2.833,11.255,11.255,0,0,1-1.432,1.79,5.061,5.061,0,0,1-1.37,1Q42.18-1.508,42.077-1.467Zm49.446.074a1.623,1.623,0,0,1,.046.879,1.946,1.946,0,0,1-.067.242q.195-.061.387-.135a7.424,7.424,0,0,0,2.052-1.209,9.135,9.135,0,0,0,1.341-1.378,7.875,7.875,0,0,1-.106-1.029A8.909,8.909,0,0,1,93.859-2.66a6.772,6.772,0,0,1-1.7,1.051A5.05,5.05,0,0,1,91.523-1.392ZM105.39-12.7a5.554,5.554,0,0,0-2.451.52,5.68,5.68,0,0,0-1.835,1.406,8.5,8.5,0,0,0-1.275,1.983,10.353,10.353,0,0,0-.73,2.16A9.354,9.354,0,0,0,98.87-4.71a3.591,3.591,0,0,0,.217,1.354,1.474,1.474,0,0,0,.584.713,1.787,1.787,0,0,0,.979.253,3.346,3.346,0,0,0,1.8-.6,8.77,8.77,0,0,0,1.983-1.86A20.9,20.9,0,0,0,106.4-7.792l1.442-4.409a4.574,4.574,0,0,0-1.05-.359A7.165,7.165,0,0,0,105.39-12.7Zm-68.46,0a5.531,5.531,0,0,0-2.464.518,5.729,5.729,0,0,0-1.822,1.408,8.5,8.5,0,0,0-1.275,1.983,11.037,11.037,0,0,0-.747,2.166A8.8,8.8,0,0,0,30.38-4.71a3.389,3.389,0,0,0,.228,1.344,1.59,1.59,0,0,0,.594.726,1.8,1.8,0,0,0,.988.25,3.4,3.4,0,0,0,1.88-.664,9.832,9.832,0,0,0,2.123-2.071,19.961,19.961,0,0,0,1.684-2.542l1.495-4.539a5.6,5.6,0,0,0-.589-.215A6.479,6.479,0,0,0,36.93-12.7ZM73.264-3.389a1.964,1.964,0,0,1,.12.6l.221-.133A4.211,4.211,0,0,1,73.264-3.389Zm.566-1.075a3.411,3.411,0,0,0,.611.979l.021.023a14.515,14.515,0,0,0,1.907-1.493l.011-.01a17.054,17.054,0,0,0,2.128-2.229A10.581,10.581,0,0,0,79.955-9.6a6.191,6.191,0,0,0,.515-2.429,3.351,3.351,0,0,0-.362-1.581,2.568,2.568,0,0,0-1.048-1.058,2.994,2.994,0,0,0-.876-.318,2.843,2.843,0,0,1-.07.724,3.257,3.257,0,0,1-.295.825,1.541,1.541,0,0,1,.477.385,2.44,2.44,0,0,1,.475,1.594A4.846,4.846,0,0,1,78.322-9.5a8.812,8.812,0,0,1-1.176,1.909A11.807,11.807,0,0,1,75.488-5.9,16.369,16.369,0,0,1,73.83-4.464Zm12.021-1.03A10.443,10.443,0,0,0,85.67-3.9c.577-.469,1.149-.97,1.707-1.5a15.509,15.509,0,0,1,.407-1.527l.23-.71q-.51.555-1.034,1.079C86.608-6.191,86.229-5.833,85.851-5.494ZM75.558-14.822a4.863,4.863,0,0,0-1.054.462,6.186,6.186,0,0,0-2.027,1.945,9.983,9.983,0,0,0-1.257,2.757,10.921,10.921,0,0,0-.431,3,8.043,8.043,0,0,0,.373,2.509l.168-.1a1.111,1.111,0,0,1,.734-.224c.2-.117.395-.241.587-.371a7.55,7.55,0,0,1-.222-1.87A9.267,9.267,0,0,1,72.6-8.433a11.36,11.36,0,0,1,.5-1.8,8.116,8.116,0,0,1,.832-1.662,4.628,4.628,0,0,1,1.2-1.259,2.793,2.793,0,0,1,.484-.272,1.988,1.988,0,0,1-.14-.985A1.962,1.962,0,0,1,75.558-14.822ZM96.261-5.7A10.089,10.089,0,0,0,96.17-4.38q0,.038,0,.076a11.629,11.629,0,0,0,.852-1.876c.033-.127,0-.163-.041-.2a.466.466,0,0,0-.316-.153.428.428,0,0,0-.041.093l-.009.026-.011.025C96.5-6.154,96.38-5.921,96.261-5.7ZM76.77-12.67a1.834,1.834,0,0,0-1.064.329,3.636,3.636,0,0,0-.934.991,7.116,7.116,0,0,0-.728,1.458,10.358,10.358,0,0,0-.458,1.645A8.268,8.268,0,0,0,73.43-6.72a6.915,6.915,0,0,0,.1,1.22A15.027,15.027,0,0,0,74.8-6.624l.033-.031a10.807,10.807,0,0,0,1.534-1.562,7.813,7.813,0,0,0,1.044-1.691,3.859,3.859,0,0,0,.362-1.553,1.5,1.5,0,0,0-.245-.956A.963.963,0,0,0,76.77-12.67Zm-38.038,5.6-.4,1.2q.252-.478.5-1ZM89.7-9.608l-.9,2.779c.65-.685,1.283-1.4,1.892-2.144,1.045-1.271,2.029-2.6,2.926-3.936s1.717-2.691,2.437-4.011,1.349-2.6,1.87-3.8A25.428,25.428,0,0,0,99.118-24q.123-.444.209-.843a2.237,2.237,0,0,1-.612.082,2.12,2.12,0,0,1-.955-.214q-.093.493-.243,1.045a25.464,25.464,0,0,1-1.1,3.122c-.474,1.129-1.046,2.324-1.7,3.552s-1.392,2.48-2.2,3.726-1.682,2.476-2.607,3.653Zm-60.956.432a12.662,12.662,0,0,0-.7,2.065q-.018.074-.035.147a22.012,22.012,0,0,0,1.483-2.064l.011-.017c.065-.094.053-.109.011-.165a.872.872,0,0,0-.443-.319.238.238,0,0,0-.059-.013.217.217,0,0,0-.032.039l-.006.009C28.9-9.387,28.82-9.281,28.744-9.176ZM86.367-7.529q-.037.12-.073.238a36.111,36.111,0,0,0,2.512-2.8l4.919-15.2a9.274,9.274,0,0,1,.764-1.854,3.568,3.568,0,0,1,.828-1.026,1.59,1.59,0,0,1,.983-.376,1.439,1.439,0,0,1,.972.317,1.66,1.66,0,0,1,.455.683,2.482,2.482,0,0,1,.988-.19,2.647,2.647,0,0,1,.681.085,4.125,4.125,0,0,0-.227-.741,2.8,2.8,0,0,0-.955-1.242,2.431,2.431,0,0,0-1.464-.432,3.585,3.585,0,0,0-2.621,1.058,9.082,9.082,0,0,0-1.974,3.667ZM29.4-10.472a1.864,1.864,0,0,1,.91.662,1.156,1.156,0,0,1,.215.465,9.5,9.5,0,0,1,1.361-2.081,6.724,6.724,0,0,1,2.138-1.653A6.517,6.517,0,0,1,36.93-13.7a7.479,7.479,0,0,1,2.138.321,6.484,6.484,0,0,1,.617.221l.353-1.071c-.268-.138-.547-.266-.834-.382a6.227,6.227,0,0,0-2.333-.459,7.9,7.9,0,0,0-3.33.674,8.332,8.332,0,0,0-2.562,1.826A11.35,11.35,0,0,0,29.4-10.472ZM96.3-27.55a.635.635,0,0,0-.367.164,2.61,2.61,0,0,0-.582.744,8.482,8.482,0,0,0-.675,1.653L90.65-12.542q.532-.757,1.03-1.529c.789-1.223,1.513-2.452,2.154-3.654s1.2-2.368,1.66-3.468a24.467,24.467,0,0,0,1.059-3,8.8,8.8,0,0,0,.357-2.194,2.535,2.535,0,0,0-.1-.748.756.756,0,0,0-.2-.345A.52.52,0,0,0,96.3-27.55ZM40.593-12.72q.133.073.27.152l.2-1.045-.141-.1Zm36.58-2.344a.633.633,0,0,0-.455.192.912.912,0,0,0-.246.549.95.95,0,0,0,.092.555.159.159,0,0,0,.175.1h.032a.531.531,0,0,0,.1-.125,2.151,2.151,0,0,0,.266-.682A1.627,1.627,0,0,0,77.174-15.064Zm-23.829.09a.405.405,0,0,0-.264.157.848.848,0,0,0-.2.5.942.942,0,0,0,.094.514c.021.041.036.069.121.075a.364.364,0,0,0,.066-.09,1.685,1.685,0,0,0,.195-.6A1.563,1.563,0,0,0,53.345-14.974ZM97.91-26.385v.015c0,.273.093.373.175.429a1.071,1.071,0,0,0,.63.181,1.071,1.071,0,0,0,.63-.181.439.439,0,0,0,.174-.4c0-.015,0-.031,0-.046v-.022c0-.069-.012-.119-.127-.18a1.419,1.419,0,0,0-.678-.15,1.419,1.419,0,0,0-.678.15c-.118.064-.127.116-.127.19ZM242.04,1.01a4.592,4.592,0,0,1-2.486-.662,4.244,4.244,0,0,1-1.615-1.915q-.056-.126-.107-.258a9.763,9.763,0,0,1-1.024.98A8.424,8.424,0,0,1,234.479.527a7.083,7.083,0,0,1-2.549.483h-.06A4.321,4.321,0,0,1,229.8.56a2.969,2.969,0,0,1-1.274-1.3,4.09,4.09,0,0,1-.4-1.844,6.637,6.637,0,0,1,.386-2.138l1.894-5.771a3.974,3.974,0,0,0,.256-1.237.963.963,0,0,0-.242-.713,1.329,1.329,0,0,0-.954-.26,3.677,3.677,0,0,0-1.636.427,7.76,7.76,0,0,0-1.8,1.3,13.222,13.222,0,0,0-1.748,2.038,18.876,18.876,0,0,0-1.3,2.147l-2.16,6.613a1.518,1.518,0,0,1-.624.852A2.317,2.317,0,0,1,218.94.95a2.4,2.4,0,0,1-1.115-.266,1.078,1.078,0,0,1-.508-1.351l.008-.027,3.18-9.78a4.5,4.5,0,0,0,.231-1.252,1,1,0,0,0-.233-.72,1.413,1.413,0,0,0-.992-.253,3.6,3.6,0,0,0-1.552.4,7.089,7.089,0,0,0-1.721,1.22,13.606,13.606,0,0,0-1.692,1.939,19.7,19.7,0,0,0-1.5,2.435L210.926-.178a1.5,1.5,0,0,1-.648.858,2.409,2.409,0,0,1-1.268.27,2.4,2.4,0,0,1-1.115-.266,1.068,1.068,0,0,1-.472-1.374L211.086-12.1a1.1,1.1,0,0,0,.09-.6.574.574,0,0,0-.216-.03h-.03a1.332,1.332,0,0,0-.707.237,4.364,4.364,0,0,0-.948.9,12.9,12.9,0,0,0-1.181,1.775c-.432.756-.921,1.7-1.454,2.8a34.721,34.721,0,0,1-2.207,4.047,12.072,12.072,0,0,1-2.039,2.457A5.713,5.713,0,0,1,200.319.7a7.4,7.4,0,0,1-2.139.306h-.06a4.393,4.393,0,0,1-2.1-.45,2.951,2.951,0,0,1-1.276-1.315,3.661,3.661,0,0,1-.3-.926,9.383,9.383,0,0,1-2.632,2,6.341,6.341,0,0,1-2.659.693,4.592,4.592,0,0,1-2.486-.662,4.244,4.244,0,0,1-1.615-1.915,6.886,6.886,0,0,1-.538-2.814,12.569,12.569,0,0,1,.389-2.969,13.582,13.582,0,0,1,.654-1.983,7.381,7.381,0,0,1-1.114.082,3.7,3.7,0,0,1-1.921-.49,3.184,3.184,0,0,1-1.282-1.5,4.926,4.926,0,0,1-.36-1.32,3.414,3.414,0,0,0-.646.315,7.515,7.515,0,0,0-1.558,1.337,14.852,14.852,0,0,0-1.61,2.148,19.6,19.6,0,0,0-1.424,2.759L173.756-.178a1.5,1.5,0,0,1-.648.858,2.409,2.409,0,0,1-1.268.27,2.4,2.4,0,0,1-1.115-.266,1.068,1.068,0,0,1-.472-1.374l3.688-11.394c.118-.416.059-.566.046-.591-.022-.044-.12-.054-.2-.054a1.025,1.025,0,0,0-.548.166,3.072,3.072,0,0,0-.7.658,10.285,10.285,0,0,0-.9,1.329l-.02.032a2.365,2.365,0,0,1-.656.679,1.278,1.278,0,0,1-.694.17,2.978,2.978,0,0,1-.459-.04l-.043-.009a1.3,1.3,0,0,1-1.067-.9,1.7,1.7,0,0,1,.135-1.181l.006-.012a11.68,11.68,0,0,1,1.3-2.053,6.074,6.074,0,0,1,1.75-1.518,4.458,4.458,0,0,1,2.227-.575,4.04,4.04,0,0,1,1.644.3,2.488,2.488,0,0,1,1.082.884,3.406,3.406,0,0,1,.493,1.194q.02.1.036.192.172-.2.343-.374a9.5,9.5,0,0,1,1.426-1.235,6.46,6.46,0,0,1,1.465-.779,4.419,4.419,0,0,1,1.136-.256l0-.014h.349q.086,0,.167,0l.544.009-.018.05a1.659,1.659,0,0,1,.693.3,1.774,1.774,0,0,1,.524,1.491,4.8,4.8,0,0,0,.144,1.313.881.881,0,0,0,.3.5,1.185,1.185,0,0,0,.642.144,5.016,5.016,0,0,0,1.186-.151,5.732,5.732,0,0,0,1.241-.47,4.584,4.584,0,0,0,.442-.259l.113-.121A9.327,9.327,0,0,1,190.95-15.3a8.888,8.888,0,0,1,3.75-.766,7.222,7.222,0,0,1,2.707.531c.283.114.56.239.828.374a1.452,1.452,0,0,1,.474-.528,2.073,2.073,0,0,1,1.122-.257,2.018,2.018,0,0,1,1.558.452,1.31,1.31,0,0,1,.146,1.379l-3.268,9.985c-.386,1.159-.278,1.534-.236,1.621.088.182.351.274.78.274h.03a2.1,2.1,0,0,0,.855-.224,4.089,4.089,0,0,0,1.09-.8,10.281,10.281,0,0,0,1.3-1.63,18.622,18.622,0,0,0,1.429-2.686,36.691,36.691,0,0,1,2.192-4.26,13.935,13.935,0,0,1,1.934-2.537,5.486,5.486,0,0,1,1.839-1.266,4.957,4.957,0,0,1,1.752-.332h.03a4.147,4.147,0,0,1,1.6.279,2.6,2.6,0,0,1,1.109.855,3.126,3.126,0,0,1,.537,1.248q.039.2.064.4.3-.3.6-.569a10.672,10.672,0,0,1,1.7-1.243,8.269,8.269,0,0,1,1.789-.782,6.534,6.534,0,0,1,1.868-.276,3.578,3.578,0,0,1,2.821,1.04,3.828,3.828,0,0,1,.9,2.111q.311-.34.636-.645a9.987,9.987,0,0,1,2.717-1.862,7.024,7.024,0,0,1,2.89-.644,3.538,3.538,0,0,1,2.79,1.04,4.089,4.089,0,0,1,.949,2.6,8.889,8.889,0,0,1-.536,3.256l-1.649,5.036c-.386,1.159-.278,1.534-.236,1.621.088.182.351.274.78.274h.03A3.607,3.607,0,0,0,234-2.532a5.779,5.779,0,0,0,1.448-.9,8.093,8.093,0,0,0,1.355-1.455,10.5,10.5,0,0,0,.719-1.129c.064-.43.152-.879.264-1.334a13.954,13.954,0,0,1,1.182-3.112,12.313,12.313,0,0,1,2-2.8A9.327,9.327,0,0,1,243.84-15.3a8.888,8.888,0,0,1,3.75-.766,7.032,7.032,0,0,1,2.1.323,8.741,8.741,0,0,1,1.408.578,1.455,1.455,0,0,1,.517-.549,2.122,2.122,0,0,1,1.075-.232,1.971,1.971,0,0,1,1.582.463,1.385,1.385,0,0,1,.156,1.351l0,.013L250.856-3.3a5,5,0,0,0-.162.7.558.558,0,0,0,.019.3.5.5,0,0,0,.177.023.969.969,0,0,0,.5-.142,2.4,2.4,0,0,0,.558-.46,7.429,7.429,0,0,0,.515-.625,1.351,1.351,0,0,1,.767-.554,1.055,1.055,0,0,1,.29-.04,1.6,1.6,0,0,1,.883.31,1.369,1.369,0,0,1,.737.988,1.606,1.606,0,0,1-.207.929,6.3,6.3,0,0,1-.894,1.223A5.443,5.443,0,0,1,252.567.5a4.184,4.184,0,0,1-2.007.48,3.975,3.975,0,0,1-1.714-.318,2.48,2.48,0,0,1-1.063-.9,3.166,3.166,0,0,1-.447-1.21q-.015-.095-.026-.19A10.368,10.368,0,0,1,246.028-.5,7.788,7.788,0,0,1,243.893.669,5.946,5.946,0,0,1,242.04,1.01Zm-3.455-3.762a4.775,4.775,0,0,0,.267.779A3.219,3.219,0,0,0,240.086-.5,3.612,3.612,0,0,0,242.04.01a4.964,4.964,0,0,0,1.537-.289A6.8,6.8,0,0,0,245.432-1.3a11.109,11.109,0,0,0,2.007-2.01l.839.535a.2.2,0,0,0,.023-.089l0,.215a4.087,4.087,0,0,0,.026,1.042,2.175,2.175,0,0,0,.3.83,1.481,1.481,0,0,0,.647.536,3.071,3.071,0,0,0,1.286.222,3.2,3.2,0,0,0,1.533-.36,4.446,4.446,0,0,0,1.2-.93,5.318,5.318,0,0,0,.754-1.024l0-.005a.628.628,0,0,0,.092-.353c-.006-.014-.054-.1-.278-.244l-.012-.008a.683.683,0,0,0-.335-.147l-.015,0a.363.363,0,0,0-.216.157l-.012.017a8.406,8.406,0,0,1-.59.718,3.4,3.4,0,0,1-.792.65,1.968,1.968,0,0,1-1,.278,1.1,1.1,0,0,1-1.031-.5,1.445,1.445,0,0,1-.153-.974,6.006,6.006,0,0,1,.2-.851l0-.009,3.568-10.823a.666.666,0,0,0,.038-.407,1.741,1.741,0,0,0-.821-.113,1.185,1.185,0,0,0-.574.1c-.022.013-.134.091-.269.425l-.187.746-.58-.352a7.658,7.658,0,0,0-1.69-.76,6.033,6.033,0,0,0-1.8-.277,7.9,7.9,0,0,0-3.33.674,8.332,8.332,0,0,0-2.562,1.826A11.314,11.314,0,0,0,239.859-10a13.107,13.107,0,0,0-.986,2.464h.052a1.453,1.453,0,0,1,.994.446,1.144,1.144,0,0,1,.342.714q.04-.228.091-.465a11.354,11.354,0,0,1,.8-2.37,9.5,9.5,0,0,1,1.425-2.217,6.675,6.675,0,0,1,2.155-1.654,6.543,6.543,0,0,1,2.889-.621,8.166,8.166,0,0,1,1.6.16,5.945,5.945,0,0,1,1.7.653l.361.2-1.733,5.3-.024.042a21.972,21.972,0,0,1-2.089,3.132,9.751,9.751,0,0,1-2.217,2.07,4.322,4.322,0,0,1-2.34.754,2.792,2.792,0,0,1-1.511-.407,2.474,2.474,0,0,1-.976-1.177A4.563,4.563,0,0,1,240.1-4.71a8.735,8.735,0,0,1,.07-1.065A12.078,12.078,0,0,1,238.761-3C238.7-2.917,238.645-2.834,238.585-2.752ZM186.8-9.657a12.828,12.828,0,0,0-.926,2.546,11.575,11.575,0,0,0-.361,2.731,5.9,5.9,0,0,0,.452,2.406A3.219,3.219,0,0,0,187.2-.5,3.612,3.612,0,0,0,189.15.01a5.372,5.372,0,0,0,2.231-.6,9.021,9.021,0,0,0,2.678-2.149c.112-.124.225-.255.337-.39a7.587,7.587,0,0,1,.2-1.123,10.407,10.407,0,0,1-2.141,2.024,4.369,4.369,0,0,1-2.44.836,2.771,2.771,0,0,1-1.532-.41,2.593,2.593,0,0,1-.966-1.164,4.36,4.36,0,0,1-.312-1.746,9.792,9.792,0,0,1,.267-2.136,12.037,12.037,0,0,1,.813-2.364,9.5,9.5,0,0,1,1.425-2.217,6.724,6.724,0,0,1,2.138-1.653,6.517,6.517,0,0,1,2.906-.622,7.48,7.48,0,0,1,2.138.321,6.484,6.484,0,0,1,.617.221l.353-1.071c-.268-.138-.547-.266-.834-.382a6.226,6.226,0,0,0-2.333-.459,7.9,7.9,0,0,0-3.33.674,8.52,8.52,0,0,0-1.406.818,1.639,1.639,0,0,1,.259.6.93.93,0,0,1-.244.95,12.493,12.493,0,0,1-1.814,1.623A6.406,6.406,0,0,1,186.8-9.657ZM232.6-1.24a.878.878,0,0,0-.625.206.9.9,0,0,0-.288.5.646.646,0,0,0,.063.449.154.154,0,0,0,.159.091.864.864,0,0,0,.6-.206.9.9,0,0,0,.288-.5.711.711,0,0,0-.056-.464C232.723-1.208,232.708-1.238,232.6-1.24Zm-33.774,0c-.038,0-.123.014-.246.163a1.57,1.57,0,0,0-.309.595,1.06,1.06,0,0,0-.036.488.761.761,0,0,0,.505-.195A.854.854,0,0,0,199-.683a.851.851,0,0,0-.061-.5C198.926-1.217,198.916-1.237,198.827-1.24ZM218.263-.217a.129.129,0,0,0,.022.014,1.389,1.389,0,0,0,.655.154,1.42,1.42,0,0,0,.718-.114.522.522,0,0,0,.215-.313l0-.008,1.815-5.555h-1.127l.212-.654a18.59,18.59,0,0,1,1.758-3.915c.236-.389.485-.764.74-1.115.015-.226.019-.449.012-.665a3.019,3.019,0,0,0-.686-1.981,2.649,2.649,0,0,0-2.07-.7,5.534,5.534,0,0,0-1.582.234,7.266,7.266,0,0,0-1.571.688,9.671,9.671,0,0,0-1.54,1.127,13.086,13.086,0,0,0-1.488,1.575l-.866-.463.13-.417a4.694,4.694,0,0,0-.083-1.076,2.136,2.136,0,0,0-.363-.852,1.59,1.59,0,0,0-.691-.525,2.126,2.126,0,0,0-.279-.094,2.793,2.793,0,0,1-.022.587,2.707,2.707,0,0,1-.279.891.961.961,0,0,1,.2.307,1.88,1.88,0,0,1-.063,1.305l-3.659,11.4a.513.513,0,0,0-.031.178l.01.006a1.389,1.389,0,0,0,.655.154,1.494,1.494,0,0,0,.742-.12.513.513,0,0,0,.22-.307l0-.007,2.143-6.61.019-.037a20.739,20.739,0,0,1,1.6-2.6,14.612,14.612,0,0,1,1.818-2.081,8.081,8.081,0,0,1,1.969-1.39,4.58,4.58,0,0,1,1.988-.5,2.212,2.212,0,0,1,1.738.587,1.975,1.975,0,0,1,.487,1.41,5.5,5.5,0,0,1-.279,1.536L218.28-.4A.4.4,0,0,0,218.263-.217ZM171.175-.21l.01.006a1.389,1.389,0,0,0,.655.154,1.494,1.494,0,0,0,.742-.12.513.513,0,0,0,.22-.307l0-.007,1.905-5.891A20.611,20.611,0,0,1,176.217-9.3a15.84,15.84,0,0,1,1.72-2.293,8.5,8.5,0,0,1,1.772-1.513,4.074,4.074,0,0,1,1.1-.485l0-.048.054,0,.492-1.344a3.723,3.723,0,0,0-.4.121,5.465,5.465,0,0,0-1.235.661,8.5,8.5,0,0,0-1.274,1.105,13.959,13.959,0,0,0-1.274,1.564l-.879-.456.155-.439a4.059,4.059,0,0,0-.083-.971,2.411,2.411,0,0,0-.347-.846,1.487,1.487,0,0,0-.658-.526,3.07,3.07,0,0,0-1.236-.211,3.47,3.47,0,0,0-1.734.445,5.079,5.079,0,0,0-1.46,1.272,10.677,10.677,0,0,0-1.186,1.871.72.72,0,0,0-.073.493c.017.062.143.132.323.18a1.93,1.93,0,0,0,.28.024.458.458,0,0,0,.168-.02,1.408,1.408,0,0,0,.349-.383,11.2,11.2,0,0,1,.981-1.444,3.98,3.98,0,0,1,.948-.872,2.024,2.024,0,0,1,1.072-.314,1.131,1.131,0,0,1,1.092.606A1.8,1.8,0,0,1,174.9-11.8l-.005.017-3.69,11.4A.509.509,0,0,0,171.175-.21Zm24.2-2.533c0,.053,0,.1-.005.156a3.03,3.03,0,0,0,.279,1.392,1.944,1.944,0,0,0,.854.875,2.57,2.57,0,0,0,.725.25,2.211,2.211,0,0,1,.085-.678,2.59,2.59,0,0,1,.348-.76,1.334,1.334,0,0,1-.526-.568,3.3,3.3,0,0,1,.185-2.372l3.272-10c.088-.253.068-.364.056-.384a1.593,1.593,0,0,0-.814-.121,1.147,1.147,0,0,0-.588.1.506.506,0,0,0-.138.176c.22.14.434.288.638.443l.247.187-.586,3.108-.626-.408c-.231-.15-.455-.288-.672-.411l-1.1,3.336v0l.768,1.535-.1.218A20.3,20.3,0,0,1,195.37-2.743Zm35.983-7.415-1.89,5.76a5.647,5.647,0,0,0-.333,1.818,3.106,3.106,0,0,0,.292,1.4,1.961,1.961,0,0,0,.856.864,2.322,2.322,0,0,0,.412.172A1.785,1.785,0,0,1,230.7-.7a1.865,1.865,0,0,1,.5-.979,1.319,1.319,0,0,1-.3-.4,3.3,3.3,0,0,1,.185-2.372l1.652-5.045a7.9,7.9,0,0,0,.483-2.891,3.081,3.081,0,0,0-.7-1.986,2.606,2.606,0,0,0-2.039-.7,6.032,6.032,0,0,0-2.48.556,8.994,8.994,0,0,0-2.443,1.678,11.915,11.915,0,0,0-1.322,1.48,9.49,9.49,0,0,1-.165,1.027,13.391,13.391,0,0,1,1.268-1.376,8.752,8.752,0,0,1,2.038-1.462,4.661,4.661,0,0,1,2.084-.533,2.21,2.21,0,0,1,1.686.58,1.941,1.941,0,0,1,.508,1.417A4.956,4.956,0,0,1,231.353-10.158ZM199.907-1.467a1.881,1.881,0,0,1,.088.92,1.771,1.771,0,0,1-.076.325l.112-.032a4.731,4.731,0,0,0,1.706-1.008A11.1,11.1,0,0,0,203.6-3.515a33.767,33.767,0,0,0,2.141-3.93c.544-1.128,1.044-2.092,1.487-2.868a13.884,13.884,0,0,1,1.279-1.915,5.251,5.251,0,0,1,1.182-1.108q.058-.037.116-.07a1.665,1.665,0,0,1-.2-1,1.989,1.989,0,0,1,.037-.226,4.909,4.909,0,0,0-1.3.964,12.973,12.973,0,0,0-1.786,2.353,35.722,35.722,0,0,0-2.128,4.14,19.594,19.594,0,0,1-1.51,2.833,11.253,11.253,0,0,1-1.432,1.79,5.062,5.062,0,0,1-1.37,1Q200.01-1.508,199.907-1.467Zm33.828.079a1.75,1.75,0,0,1,.053.857,1.793,1.793,0,0,1-.066.262q.2-.062.4-.139a7.426,7.426,0,0,0,2.052-1.209,9.138,9.138,0,0,0,1.341-1.378,7.875,7.875,0,0,1-.106-1.029,8.908,8.908,0,0,1-1.318,1.363,6.772,6.772,0,0,1-1.7,1.051A5.041,5.041,0,0,1,233.735-1.387ZM247.62-12.7a5.554,5.554,0,0,0-2.451.52,5.68,5.68,0,0,0-1.835,1.406,8.5,8.5,0,0,0-1.275,1.983,10.355,10.355,0,0,0-.73,2.16A9.356,9.356,0,0,0,241.1-4.71a3.591,3.591,0,0,0,.217,1.354,1.474,1.474,0,0,0,.584.713,1.787,1.787,0,0,0,.979.253,3.346,3.346,0,0,0,1.8-.6,8.769,8.769,0,0,0,1.983-1.86,20.9,20.9,0,0,0,1.968-2.946l1.442-4.409a4.574,4.574,0,0,0-1.05-.359A7.165,7.165,0,0,0,247.62-12.7Zm-52.86,0a5.531,5.531,0,0,0-2.464.518,5.729,5.729,0,0,0-1.822,1.408A8.5,8.5,0,0,0,189.2-8.791a11.038,11.038,0,0,0-.747,2.166,8.8,8.8,0,0,0-.243,1.914,3.389,3.389,0,0,0,.228,1.344,1.59,1.59,0,0,0,.594.726,1.8,1.8,0,0,0,.988.25,3.4,3.4,0,0,0,1.88-.664,9.832,9.832,0,0,0,2.122-2.071,19.959,19.959,0,0,0,1.684-2.542l1.495-4.539a5.607,5.607,0,0,0-.589-.215A6.48,6.48,0,0,0,194.76-12.7Zm43.731,7A10.091,10.091,0,0,0,238.4-4.38q0,.038,0,.076a11.629,11.629,0,0,0,.852-1.876c.033-.127,0-.163-.041-.2a.466.466,0,0,0-.316-.153.428.428,0,0,0-.041.093l-.009.026-.011.025C238.725-6.154,238.61-5.921,238.491-5.7ZM196.562-7.068l-.4,1.2q.252-.478.5-1Zm25.387.028h.041l.071-.138.282-.863Q222.136-7.555,221.95-7.04Zm-40.083-5.669a3.936,3.936,0,0,0,.287,1.063,2.177,2.177,0,0,0,.878,1.046,2.716,2.716,0,0,0,1.409.35,5.9,5.9,0,0,0,1.645-.22h0q.27-.517.589-1.008l-.152.039a6.014,6.014,0,0,1-1.424.179,2.144,2.144,0,0,1-1.188-.306,1.826,1.826,0,0,1-.716-1.056,4.4,4.4,0,0,1-.153-.838,2.393,2.393,0,0,1-.273.3A1.814,1.814,0,0,1,181.866-12.709Zm6.761.332a11.377,11.377,0,0,0-.782.961,12.436,12.436,0,0,0,1.409-1.305c0-.01,0-.023-.007-.038a.914.914,0,0,0-.025-.089A6.238,6.238,0,0,1,188.627-12.377Zm9.8-.343q.133.073.27.152l.2-1.045-.141-.1Zm12.751-2.257a.465.465,0,0,0-.354.16.935.935,0,0,0-.218.513.666.666,0,0,0,.1.455.241.241,0,0,0,.22.117.363.363,0,0,0,.066-.09,1.686,1.686,0,0,0,.195-.6A1.56,1.56,0,0,0,211.174-14.977Zm-28.762.009-.421,1.149a.817.817,0,0,0,.1-.079,1.184,1.184,0,0,0,.364-.594.58.58,0,0,0-.037-.467Z" transform="translate(0 43.374)" fill="#ea2630"></path>
    </g>
    <g transform="translate(906.772 129.615)">
      <text transform="translate(0.228 12.194)" fill="#9a5f41" font-size="12" font-family="DM Sans" letter-spacing="0.2em">
        <tspan x="0" y="0">BY ANA BARBA </tspan>
      </text>
    </g>
  </g>
</svg>
